<svg xmlns="http://www.w3.org/2000/svg" viewBox="0 0 166 166" font-family="ui-monospace,Menlo,monospace"><rect x="14" y="14" width="46" height="46" rx="7" fill="rgb(191,164,190)" fill-opacity="0.55" stroke="#e3ddd5"/><rect x="60" y="14" width="46" height="46" rx="7" fill="rgb(191,164,190)" fill-opacity="0.55" stroke="#e3ddd5"/><rect x="106" y="14" width="46" height="46" rx="7" fill="rgb(191,164,190)" fill-opacity="0.55" stroke="#e3ddd5"/><rect x="14" y="60" width="46" height="46" rx="7" fill="rgb(224,165,175)" fill-opacity="0.55" stroke="#e3ddd5"/><rect x="106" y="60" width="46" height="46" rx="7" fill="rgb(222,204,198)" fill-opacity="0.55" stroke="#e3ddd5"/><rect x="14" y="106" width="46" height="46" rx="7" fill="rgb(177,191,193)" fill-opacity="0.55" stroke="#e3ddd5"/><rect x="60" y="106" width="46" height="46" rx="7" fill="rgb(177,191,193)" fill-opacity="0.55" stroke="#e3ddd5"/><rect x="106" y="106" width="46" height="46" rx="7" fill="rgb(222,204,198)" fill-opacity="0.55" stroke="#e3ddd5"/><rect x="19" y="19" width="82" height="36" rx="9" fill="#fdfdfb" fill-opacity="0.65" stroke="#2f6f9f" stroke-width="3"/><line x1="60.0" y1="23" x2="60.0" y2="51" stroke="#2f6f9f" stroke-width="1.5" stroke-dasharray="3 3"/><text x="37.0" y="37.0" font-size="20" font-weight="700" fill="#26211d" text-anchor="middle" dominant-baseline="central">2</text><text x="83.0" y="37.0" font-size="20" font-weight="700" fill="#26211d" text-anchor="middle" dominant-baseline="central">2</text><rect x="111" y="19" width="36" height="82" rx="9" fill="#fdfdfb" fill-opacity="0.65" stroke="#c8762a" stroke-width="3"/><line x1="115" y1="60.0" x2="143" y2="60.0" stroke="#c8762a" stroke-width="1.5" stroke-dasharray="3 3"/><text x="129.0" y="37.0" font-size="20" font-weight="700" fill="#26211d" text-anchor="middle" dominant-baseline="central">2</text><text x="129.0" y="83.0" font-size="20" font-weight="700" fill="#26211d" text-anchor="middle" dominant-baseline="central">1</text><rect x="19" y="65" width="36" height="82" rx="9" fill="#fdfdfb" fill-opacity="0.65" stroke="#c8762a" stroke-width="3"/><line x1="23" y1="106.0" x2="51" y2="106.0" stroke="#c8762a" stroke-width="1.5" stroke-dasharray="3 3"/><text x="37.0" y="83.0" font-size="20" font-weight="700" fill="#26211d" text-anchor="middle" dominant-baseline="central">2</text><text x="37.0" y="129.0" font-size="20" font-weight="700" fill="#26211d" text-anchor="middle" dominant-baseline="central">4</text></svg>